# xmcd CD database file
#
# Track frame offsets:
#	150
#	21711
#	42830
#	64513
#	96865
#	122975
#	148881
#	186996
#
# Disc length: 2733 seconds
#
# Revision: 0
# Processed by: cddbd v1.5.2PL0 Copyright (c) Steve Scherf et al.
# Submitted via: CDex 2.19
#
DISCID=790aab08
DTITLE=Theon Cross - Fyah
DYEAR=2019
DGENRE=Jazz
TTITLE0=Activate
TTITLE1=The Offerings
TTITLE2=Radiation
TTITLE3=Letting Go
TTITLE4=Candace Of Meroe
TTITLE5=Panda Village
TTITLE6=CIYA
TTITLE7=LDN's Burning
EXTD=YEAR: 2019
EXTT0=
EXTT1=
EXTT2=
EXTT3=
EXTT4=
EXTT5=
EXTT6=
EXTT7=
PLAYORDER=
